<svg
   version="1.1"
   baseProfile="full"
   width="72"
   height="96"
   xmlns="http://www.w3.org/2000/svg">
  <g
     style="display:inline">
    <rect
       style="display:inline;fill:#ffffff;stroke-width:0"
       width="72"
       height="96"
       x="0"
       y="0" />
    <rect
       style="display:inline;fill:#000000;stroke-width:0"
       width="62"
       height="86"
       x="5"
       y="5" />
    <rect
       style="display:inline;fill:#ffffff;stroke-width:0"
       width="56"
       height="80"
       x="8"
       y="8" />
  </g>
  <g>
    <path
       fill="#CD212A"
       stroke="none"
       d="M 8.0,8.0 12.666666666666668,8.0 8.0,14.666666666666668 Z" />
    <path
       fill="#F4F5F0"
       stroke="none"
       d="M 8.0,14.666666666666668 12.666666666666668,8.0 17.333333333333336,8.0 8.0,21.333333333333336 Z" />
    <path
       fill="#008C45"
       stroke="none"
       d="M 8.0,21.333333333333336 17.333333333333336,8.0 22.0,8.0 8.0,28.0 Z" />
    <path
       fill="#CD212A"
       stroke="none"
       d="M 8.0,28.0 22.0,8.0 26.666666666666668,8.0 8.0,34.66666666666667 Z" />
    <path
       fill="#F4F5F0"
       stroke="none"
       d="M 8.0,34.66666666666667 26.666666666666668,8.0 31.333333333333336,8.0 8.0,41.333333333333336 Z" />
    <path
       fill="#008C45"
       stroke="none"
       d="M 8.0,41.333333333333336 31.333333333333336,8.0 36.0,8.0 8.0,48.0 Z" />
    <path
       fill="#CD212A"
       stroke="none"
       d="M 8.0,48.0 36.0,8.0 40.66666666666667,8.0 8.0,54.66666666666667 Z" />
    <path
       fill="#F4F5F0"
       stroke="none"
       d="M 8.0,54.66666666666667 40.66666666666667,8.0 45.333333333333336,8.0 8.0,61.333333333333336 Z" />
    <path
       fill="#008C45"
       stroke="none"
       d="M 8.0,61.333333333333336 45.333333333333336,8.0 50.0,8.0 8.0,68.0 Z" />
    <path
       fill="#CD212A"
       stroke="none"
       d="M 8.0,68.0 50.0,8.0 54.66666666666667,8.0 8.0,74.66666666666667 Z" />
    <path
       fill="#F4F5F0"
       stroke="none"
       d="M 8.0,74.66666666666667 54.66666666666667,8.0 59.333333333333336,8.0 8.0,81.33333333333334 Z" />
    <path
       fill="#008C45"
       stroke="none"
       d="M 8.0,81.33333333333334 59.333333333333336,8.0 64.0,8.0 8.0,88.0 Z" />
    <path
       fill="#CD212A"
       stroke="none"
       d="M 8.0,88.0 64.0,8.0 64.0,14.666666666666668 12.666666666666668,88.0 Z" />
    <path
       fill="#F4F5F0"
       stroke="none"
       d="M 12.666666666666668,88.0 64.0,14.666666666666668 64.0,21.333333333333336 17.333333333333336,88.0 Z" />
    <path
       fill="#008C45"
       stroke="none"
       d="M 17.333333333333336,88.0 64.0,21.333333333333336 64.0,28.0 22.0,88.0 Z" />
    <path
       fill="#CD212A"
       stroke="none"
       d="M 22.0,88.0 64.0,28.0 64.0,34.66666666666667 26.666666666666668,88.0 Z" />
    <path
       fill="#F4F5F0"
       stroke="none"
       d="M 26.666666666666668,88.0 64.0,34.66666666666667 64.0,41.333333333333336 31.333333333333336,88.0 Z" />
    <path
       fill="#008C45"
       stroke="none"
       d="M 31.333333333333336,88.0 64.0,41.333333333333336 64.0,48.0 36.0,88.0 Z" />
    <path
       fill="#CD212A"
       stroke="none"
       d="M 36.0,88.0 64.0,48.0 64.0,54.66666666666667 40.66666666666667,88.0 Z" />
    <path
       fill="#F4F5F0"
       stroke="none"
       d="M 40.66666666666667,88.0 64.0,54.66666666666667 64.0,61.333333333333336 45.333333333333336,88.0 Z" />
    <path
       fill="#008C45"
       stroke="none"
       d="M 45.333333333333336,88.0 64.0,61.333333333333336 64.0,68.0 50.0,88.0 Z" />
    <path
       fill="#CD212A"
       stroke="none"
       d="M 50.0,88.0 64.0,68.0 64.0,74.66666666666667 54.66666666666667,88.0 Z" />
    <path
       fill="#F4F5F0"
       stroke="none"
       d="M 54.66666666666667,88.0 64.0,74.66666666666667 64.0,81.33333333333334 59.333333333333336,88.0 Z" />
    <path
       fill="#008C45"
       stroke="none"
       d="M 59.333333333333336,88.0 64.0,81.33333333333334 64.0,88.0 Z" />
  </g>
</svg>