<svg
   version="1.1"
   baseProfile="full"
   width="72"
   height="96"
   xmlns="http://www.w3.org/2000/svg">
  <g
     style="display:inline">
    <rect
       style="display:inline;fill:#ffffff;stroke-width:0"
       width="72"
       height="96"
       x="0"
       y="0" />
    <rect
       style="display:inline;fill:#000000;stroke-width:0"
       width="58"
       height="82"
       x="7"
       y="7" />
    <rect
       style="display:inline;fill:#ffffff;stroke-width:0"
       width="52"
       height="76"
       x="10"
       y="10" />
  </g>
  <g>
    <path
       fill="#CD212A"
       stroke="none"
       d="M 10.0,10.0 14.333333333333332,10.0 10.0,16.333333333333332 Z" />
    <path
       fill="#F4F5F0"
       stroke="none"
       d="M 10.0,16.333333333333332 14.333333333333332,10.0 18.666666666666664,10.0 10.0,22.666666666666664 Z" />
    <path
       fill="#008C45"
       stroke="none"
       d="M 10.0,22.666666666666664 18.666666666666664,10.0 23.0,10.0 10.0,29.0 Z" />
    <path
       fill="#CD212A"
       stroke="none"
       d="M 10.0,29.0 23.0,10.0 27.333333333333332,10.0 10.0,35.33333333333333 Z" />
    <path
       fill="#F4F5F0"
       stroke="none"
       d="M 10.0,35.33333333333333 27.333333333333332,10.0 31.666666666666664,10.0 10.0,41.666666666666664 Z" />
    <path
       fill="#008C45"
       stroke="none"
       d="M 10.0,41.666666666666664 31.666666666666664,10.0 36.0,10.0 10.0,48.0 Z" />
    <path
       fill="#CD212A"
       stroke="none"
       d="M 10.0,48.0 36.0,10.0 40.33333333333333,10.0 10.0,54.33333333333333 Z" />
    <path
       fill="#F4F5F0"
       stroke="none"
       d="M 10.0,54.33333333333333 40.33333333333333,10.0 44.666666666666664,10.0 10.0,60.666666666666664 Z" />
    <path
       fill="#008C45"
       stroke="none"
       d="M 10.0,60.666666666666664 44.666666666666664,10.0 49.0,10.0 10.0,67.0 Z" />
    <path
       fill="#CD212A"
       stroke="none"
       d="M 10.0,67.0 49.0,10.0 53.33333333333333,10.0 10.0,73.33333333333333 Z" />
    <path
       fill="#F4F5F0"
       stroke="none"
       d="M 10.0,73.33333333333333 53.33333333333333,10.0 57.666666666666664,10.0 10.0,79.66666666666666 Z" />
    <path
       fill="#008C45"
       stroke="none"
       d="M 10.0,79.66666666666666 57.666666666666664,10.0 62.0,10.0 10.0,86.0 Z" />
    <path
       fill="#CD212A"
       stroke="none"
       d="M 10.0,86.0 62.0,10.0 62.0,16.333333333333332 14.333333333333332,86.0 Z" />
    <path
       fill="#F4F5F0"
       stroke="none"
       d="M 14.333333333333332,86.0 62.0,16.333333333333332 62.0,22.666666666666664 18.666666666666664,86.0 Z" />
    <path
       fill="#008C45"
       stroke="none"
       d="M 18.666666666666664,86.0 62.0,22.666666666666664 62.0,29.0 23.0,86.0 Z" />
    <path
       fill="#CD212A"
       stroke="none"
       d="M 23.0,86.0 62.0,29.0 62.0,35.33333333333333 27.333333333333332,86.0 Z" />
    <path
       fill="#F4F5F0"
       stroke="none"
       d="M 27.333333333333332,86.0 62.0,35.33333333333333 62.0,41.666666666666664 31.666666666666664,86.0 Z" />
    <path
       fill="#008C45"
       stroke="none"
       d="M 31.666666666666664,86.0 62.0,41.666666666666664 62.0,48.0 36.0,86.0 Z" />
    <path
       fill="#CD212A"
       stroke="none"
       d="M 36.0,86.0 62.0,48.0 62.0,54.33333333333333 40.33333333333333,86.0 Z" />
    <path
       fill="#F4F5F0"
       stroke="none"
       d="M 40.33333333333333,86.0 62.0,54.33333333333333 62.0,60.666666666666664 44.666666666666664,86.0 Z" />
    <path
       fill="#008C45"
       stroke="none"
       d="M 44.666666666666664,86.0 62.0,60.666666666666664 62.0,67.0 49.0,86.0 Z" />
    <path
       fill="#CD212A"
       stroke="none"
       d="M 49.0,86.0 62.0,67.0 62.0,73.33333333333333 53.33333333333333,86.0 Z" />
    <path
       fill="#F4F5F0"
       stroke="none"
       d="M 53.33333333333333,86.0 62.0,73.33333333333333 62.0,79.66666666666666 57.666666666666664,86.0 Z" />
    <path
       fill="#008C45"
       stroke="none"
       d="M 57.666666666666664,86.0 62.0,79.66666666666666 62.0,86.0 Z" />
  </g>
</svg>