<!-- Generated with Karlchen v.0.1 -->
<svg
   version="1.1"
   baseProfile="full"
   width="72"
   height="96"
   xmlns="http://www.w3.org/2000/svg">
  <g
     style="display:inline">
    <rect
       style="display:inline;fill:#ffffff;stroke-width:0"
       width="72"
       height="96"
       x="0"
       y="0" />
    <rect
       style="display:inline;fill:#000000;stroke-width:0"
       width="58"
       height="82"
       x="7"
       y="7" />
    <rect
       style="display:inline;fill:#ff6666;stroke-width:0"
       width="54"
       height="78"
       x="9"
       y="9" />
  </g>
  <g>
    <path
       fill="#ff0000"
       stroke="none"
       d="M 9.0,9.0 14.4,9.0 9.0,16.8 Z" />
    <path
       fill="#ffffff"
       stroke="none"
       d="M 9.0,16.8 14.4,9.0 19.8,9.0 9.0,24.6 Z" />
    <path
       fill="#ff0000"
       stroke="none"
       d="M 9.0,24.6 19.8,9.0 25.200000000000003,9.0 9.0,32.4 Z" />
    <path
       fill="#ffffff"
       stroke="none"
       d="M 9.0,32.4 25.200000000000003,9.0 30.6,9.0 9.0,40.2 Z" />
    <path
       fill="#ff0000"
       stroke="none"
       d="M 9.0,40.2 30.6,9.0 36.0,9.0 9.0,48.0 Z" />
    <path
       fill="#ffffff"
       stroke="none"
       d="M 9.0,48.0 36.0,9.0 41.400000000000006,9.0 9.0,55.8 Z" />
    <path
       fill="#ff0000"
       stroke="none"
       d="M 9.0,55.8 41.400000000000006,9.0 46.800000000000004,9.0 9.0,63.6 Z" />
    <path
       fill="#ffffff"
       stroke="none"
       d="M 9.0,63.6 46.800000000000004,9.0 52.2,9.0 9.0,71.4 Z" />
    <path
       fill="#ff0000"
       stroke="none"
       d="M 9.0,71.4 52.2,9.0 57.6,9.0 9.0,79.2 Z" />
    <path
       fill="#ffffff"
       stroke="none"
       d="M 9.0,79.2 57.6,9.0 63.0,9.0 9.0,87.0 Z" />
  </g>
</svg>